<svg width="101" height="32" viewBox="0 0 101 32" fill="none" xmlns="http://www.w3.org/2000/svg">
<g clip-path="url(#clip0_5001_11266)">
<path d="M56.3182 23.0181H60.0421L62.3172 11.8993H65.1098L65.5216 9.83073H62.7826L62.8864 9.36537C63.0413 8.48826 63.3517 7.50345 64.7478 7.50345C65.5762 7.50345 66.3514 7.5551 67.1267 7.91716L67.5409 5.74532C66.6769 5.44047 65.7678 5.28299 64.8516 5.27948C61.8519 5.27948 59.7838 7.03809 59.0076 9.83073H57.7148L57.3011 11.8993H58.5939L56.3182 23.0181Z" fill="#EA1D2C"/>
<path d="M68.1095 20.3293C72.5053 20.3293 75.5567 16.3467 75.5567 13.0887C75.5567 10.6581 73.3327 9.62363 71.1609 9.62363C66.3499 9.62363 63.7137 13.9186 63.7137 16.8642C63.7137 19.2948 65.9893 20.3293 68.1095 20.3293ZM79.9018 20.3293C84.2976 20.3293 87.349 16.3467 87.349 13.0887C87.349 10.6581 85.0734 9.62363 82.9011 9.62363C78.0915 9.62363 75.4544 13.9161 75.4544 16.8642C75.4544 19.2948 77.7816 20.3293 79.9018 20.3293ZM93.3996 20.1222H97.0713L100.07 5.48853H96.3467L95.4672 9.83268L93.9157 9.67772C90.2956 9.67772 86.986 14.3318 86.986 17.6419C86.986 18.9863 87.8631 20.3312 89.3649 20.3312C91.4851 20.3312 92.985 19.2967 93.6043 18.2622H93.8109L93.3996 20.1222ZM81.9177 27.8281C79.0276 30.2228 75.3154 31.3921 71.5746 31.0861C66.6613 30.7757 63.1445 27.0002 62.5242 23.0181H62.7308C63.8687 25.5033 66.6096 27.8281 69.9714 28.1897C73.3824 28.6034 77.4703 27.0524 79.6937 24.9317L77.2115 23.0181H84.7104L83.0536 30.9828L81.9674 27.8798L81.9177 27.8281Z" fill="#EA1D2C"/>
</g>
<path d="M6.2462 21.0049C6.2275 21.101 6.18348 21.1835 6.11414 21.2522C6.04747 21.3071 5.95814 21.3346 5.84616 21.3346H2.82272C2.72474 21.3346 2.6461 21.3071 2.58679 21.2522C2.54416 21.1835 2.53219 21.101 2.55089 21.0049L5.31519 6.78373C5.33656 6.67381 5.38058 6.59137 5.44725 6.53641C5.52792 6.48145 5.61725 6.45397 5.71523 6.45397H15.8563C15.9683 6.45397 16.047 6.48145 16.0923 6.53641C16.1376 6.59137 16.1495 6.67381 16.1282 6.78373L15.5913 9.54552C15.5726 9.6417 15.5286 9.72414 15.4593 9.79284C15.3926 9.8478 15.3033 9.87528 15.1913 9.87528H8.40957L7.82866 12.8638H13.6026C13.7146 12.8638 13.7932 12.8913 13.8385 12.9462C13.8838 13.0012 13.8958 13.0836 13.8744 13.1935L13.3376 15.9553C13.3189 16.0515 13.2749 16.134 13.2055 16.2027C13.1389 16.2576 13.0495 16.2851 12.9376 16.2851H7.16363L6.2462 21.0049ZM20.7143 21.6438C19.2866 21.6438 18.1235 21.3621 17.2252 20.7988C16.3296 20.2217 15.758 19.4179 15.5104 18.3874C15.4984 18.3049 15.4951 18.2499 15.5004 18.2225C15.5218 18.1125 15.6091 18.0232 15.7625 17.9545L18.4764 16.7385L18.6524 16.6973C18.7643 16.6973 18.8516 16.7523 18.9142 16.8622C19.16 17.3981 19.4758 17.7897 19.8617 18.037C20.2642 18.2706 20.7594 18.3874 21.3473 18.3874C21.9772 18.3874 22.4814 18.2774 22.8601 18.0576C23.2554 17.824 23.4892 17.5217 23.5613 17.1507C23.6414 16.7385 23.5249 16.4019 23.2117 16.1408C22.8985 15.8798 22.3687 15.653 21.6222 15.4607C20.6652 15.1996 19.8477 14.9042 19.17 14.5744C18.4949 14.2309 17.9668 13.7432 17.5858 13.1111C17.2074 12.4653 17.1157 11.6409 17.3107 10.6379C17.4682 9.82719 17.8308 9.07835 18.3982 8.39134C18.9797 7.70433 19.7291 7.16159 20.6463 6.76312C21.5803 6.35092 22.6212 6.14481 23.769 6.14481C25.1687 6.14481 26.2784 6.41275 27.0981 6.94861C27.9317 7.48448 28.4774 8.20585 28.735 9.1127C28.747 9.19514 28.7517 9.24323 28.749 9.25697C28.7303 9.35315 28.6416 9.44934 28.4829 9.54552L25.7771 10.7203C25.6991 10.7615 25.6321 10.7821 25.5761 10.7821C25.4781 10.7821 25.4048 10.7272 25.3562 10.6173C25.1283 10.205 24.8302 9.90276 24.4616 9.7104C24.1098 9.5043 23.6679 9.40124 23.136 9.40124C22.5901 9.40124 22.1501 9.5043 21.8161 9.7104C21.4988 9.90276 21.3094 10.157 21.248 10.473C21.1812 10.8165 21.2678 11.0913 21.5077 11.2974C21.7502 11.4898 22.2041 11.6753 22.8692 11.8539C23.9302 12.1562 24.8223 12.4997 25.5454 12.8844C26.2711 13.2554 26.8275 13.7775 27.2145 14.4508C27.6155 15.124 27.7172 15.9691 27.5196 16.9858C27.354 17.8377 26.9708 18.6209 26.37 19.3354C25.7719 20.0362 24.9835 20.5995 24.0049 21.0255C23.0429 21.4377 21.9461 21.6438 20.7143 21.6438ZM35.3348 21.0667C35.2441 21.2453 35.1007 21.3346 34.9048 21.3346H31.3354C31.1395 21.3346 31.0392 21.2384 31.0346 21.0461L30.6075 6.82495L30.6275 6.7219C30.6622 6.54328 30.7776 6.45397 30.9735 6.45397H34.1859C34.3959 6.45397 34.5032 6.55015 34.5078 6.74251L34.5355 16.4294L38.4375 8.45317C38.5282 8.27455 38.6715 8.18524 38.8675 8.18524H41.597C41.7929 8.18524 41.9015 8.27455 41.9228 8.45317L42.766 16.4294L46.6435 6.74251C46.7229 6.55015 46.8676 6.45397 47.0775 6.45397H49.975C50.087 6.45397 50.1643 6.48832 50.2069 6.55702C50.2496 6.62572 50.2462 6.71503 50.1968 6.82495L44.2411 21.0461C44.1617 21.2384 44.0241 21.3346 43.8281 21.3346H40.2588C40.0628 21.3346 39.9542 21.2453 39.9329 21.0667L39.1146 13.5027L35.3348 21.0667Z" fill="#EA1D2C"/>
<defs>
<clipPath id="clip0_5001_11266">
<rect width="44.0267" height="26" fill="white" transform="translate(56 5.27948)"/>
</clipPath>
</defs>
</svg>
